<?xml version="1.0" encoding="UTF-8"?>
<!DOCTYPE svg PUBLIC "-//W3C//DTD SVG 1.1//EN" "http://www.w3.org/Graphics/SVG/1.1/DTD/svg11.dtd">
<svg xmlns="http://www.w3.org/2000/svg" version="1.1" width="754px" height="266px" style="shape-rendering:geometricPrecision; text-rendering:geometricPrecision; image-rendering:optimizeQuality; fill-rule:evenodd; clip-rule:evenodd" xmlns:xlink="http://www.w3.org/1999/xlink">
<g><path style="opacity:1" fill="#a5b69a" d="M 125.5,138.5 C 126.37,140.274 127.703,141.607 129.5,142.5C 127.194,142.007 124.861,141.674 122.5,141.5C 122.5,134.167 122.5,126.833 122.5,119.5C 131.287,117.621 140.287,116.955 149.5,117.5C 149.756,115.208 149.423,113.041 148.5,111C 130.824,110.167 113.157,110.334 95.5,111.5C 93.0602,112.336 91.7268,114.003 91.5,116.5C 90.1267,111.898 91.96,109.232 97,108.5C 113.034,109.339 129.034,109.339 145,108.5C 150.581,109.495 152.414,112.661 150.5,118C 143.833,118.333 137.167,118.667 130.5,119C 128.152,119.346 126.319,120.513 125,122.5C 124.219,127.917 124.385,133.25 125.5,138.5 Z"/></g>
<g><path style="opacity:1" fill="#b2eecc" d="M 129.5,142.5 C 129.611,143.117 129.944,143.617 130.5,144C 136.537,144.697 142.537,144.53 148.5,143.5C 148.5,149.167 148.5,154.833 148.5,160.5C 130.854,161.597 113.187,161.763 95.5,161C 94,160.167 92.8333,159 92,157.5C 91.5001,144.171 91.3334,130.837 91.5,117.5C 91.5,117.167 91.5,116.833 91.5,116.5C 91.7268,114.003 93.0602,112.336 95.5,111.5C 113.157,110.334 130.824,110.167 148.5,111C 149.423,113.041 149.756,115.208 149.5,117.5C 140.287,116.955 131.287,117.621 122.5,119.5C 122.5,126.833 122.5,134.167 122.5,141.5C 124.861,141.674 127.194,142.007 129.5,142.5 Z"/></g>
<g><path style="opacity:1" fill="#f2eeeb" d="M 186.5,123.5 C 186.674,125.861 187.007,128.194 187.5,130.5C 186.952,132.394 185.952,134.06 184.5,135.5C 188.294,138.984 189.461,143.317 188,148.5C 186.269,150.617 184.102,152.117 181.5,153C 175.141,153.831 168.807,153.664 162.5,152.5C 162.288,141.196 162.288,129.863 162.5,118.5C 168.842,118.334 175.175,118.5 181.5,119C 184.115,119.612 185.781,121.112 186.5,123.5 Z M 177.5,125.5 C 179.529,129.685 178.195,132.019 173.5,132.5C 171.852,130.544 171.185,128.211 171.5,125.5C 173.5,125.5 175.5,125.5 177.5,125.5 Z M 171.5,139.5 C 173.527,139.338 175.527,139.505 177.5,140C 180.167,142 180.167,144 177.5,146C 175.527,146.495 173.527,146.662 171.5,146.5C 170.933,144.031 170.933,141.698 171.5,139.5 Z"/></g>
<g><path style="opacity:1" fill="#faf7f4" d="M 216.5,124.5 C 213.833,124.5 211.167,124.5 208.5,124.5C 208.5,132.167 208.5,139.833 208.5,147.5C 208.5,149.5 208.5,151.5 208.5,153.5C 205.833,153.5 203.167,153.5 200.5,153.5C 200.5,143.833 200.5,134.167 200.5,124.5C 197.833,124.5 195.167,124.5 192.5,124.5C 192.5,122.5 192.5,120.5 192.5,118.5C 200.721,118.322 209.055,118.322 217.5,118.5C 217.795,120.735 217.461,122.735 216.5,124.5 Z"/></g>
<g><path style="opacity:1" fill="#fcfaf7" d="M 251.5,118.5 C 259.84,118.334 268.173,118.5 276.5,119C 277.807,120.943 277.807,122.777 276.5,124.5C 273.5,124.5 270.5,124.5 267.5,124.5C 267.5,133.833 267.5,143.167 267.5,152.5C 265.167,152.5 262.833,152.5 260.5,152.5C 260.827,142.985 260.494,133.652 259.5,124.5C 256.833,124.5 254.167,124.5 251.5,124.5C 251.5,122.5 251.5,120.5 251.5,118.5 Z"/></g>
<g><path style="opacity:1" fill="#efe9e5" d="M 280.5,118.5 C 286.509,118.334 292.509,118.501 298.5,119C 304.823,121.811 307.323,126.645 306,133.5C 305.117,136.102 303.617,138.269 301.5,140C 303.6,144.274 305.933,148.441 308.5,152.5C 305.216,153.657 301.882,153.824 298.5,153C 296,149.167 293.5,145.333 291,141.5C 289.844,145.418 289.344,149.418 289.5,153.5C 286.5,153.5 283.5,153.5 280.5,153.5C 280.5,141.833 280.5,130.167 280.5,118.5 Z M 290.5,125.5 C 296.487,124.977 298.487,127.477 296.5,133C 294.655,134.128 292.655,134.628 290.5,134.5C 290.5,131.5 290.5,128.5 290.5,125.5 Z"/></g>
<g><path style="opacity:1" fill="#f2ece8" d="M 394.5,117.5 C 397.127,118.105 399.793,118.605 402.5,119C 403.833,119.667 404.833,120.667 405.5,122C 405.167,123.667 404.833,125.333 404.5,127C 401.798,127.053 399.131,126.553 396.5,125.5C 393.221,125.747 392.221,127.247 393.5,130C 398.553,132.098 402.72,135.265 406,139.5C 407.463,145.74 405.297,150.24 399.5,153C 394.833,153.667 390.167,153.667 385.5,153C 384.584,152.626 383.75,152.126 383,151.5C 382.503,148.854 382.336,146.187 382.5,143.5C 385.944,144.591 389.444,145.591 393,146.5C 398.655,145.074 398.822,142.907 393.5,140C 382.451,136.43 380.118,129.93 386.5,120.5C 389.194,119.246 391.861,118.246 394.5,117.5 Z"/></g>
<g><path style="opacity:1" fill="#f9f6f2" d="M 431.5,118.5 C 431.5,120.5 431.5,122.5 431.5,124.5C 427.167,124.5 422.833,124.5 418.5,124.5C 418.5,127.833 418.5,131.167 418.5,134.5C 422.167,134.5 425.833,134.5 429.5,134.5C 429.5,136.167 429.5,137.833 429.5,139.5C 425.833,139.5 422.167,139.5 418.5,139.5C 418.5,144.167 418.5,148.833 418.5,153.5C 415.833,153.5 413.167,153.5 410.5,153.5C 410.173,151.512 409.84,149.512 409.5,147.5C 410.256,137.853 410.756,128.186 411,118.5C 417.682,118.391 424.516,118.391 431.5,118.5 Z"/></g>
<g><path style="opacity:1" fill="#fbf9f6" d="M 437.5,118.5 C 444.5,118.5 451.5,118.5 458.5,118.5C 458.5,120.5 458.5,122.5 458.5,124.5C 453.833,124.5 449.167,124.5 444.5,124.5C 443.964,127.698 444.631,130.365 446.5,132.5C 450.143,132.357 453.477,132.357 456.5,132.5C 456.5,134.5 456.5,136.5 456.5,138.5C 452.5,138.5 448.5,138.5 444.5,138.5C 444.5,141.5 444.5,144.5 444.5,147.5C 449.167,147.5 453.833,147.5 458.5,147.5C 459.833,149.167 459.833,150.833 458.5,152.5C 451.5,152.5 444.5,152.5 437.5,152.5C 437.5,141.167 437.5,129.833 437.5,118.5 Z"/></g>
<g><path style="opacity:1" fill="#faf7f3" d="M 653.5,118.5 C 653.5,120.5 653.5,122.5 653.5,124.5C 649.167,124.5 644.833,124.5 640.5,124.5C 640.194,127.385 640.527,130.052 641.5,132.5C 642.5,132.5 643.5,132.5 644.5,132.5C 646.607,133.468 648.941,133.802 651.5,133.5C 651.5,135.167 651.5,136.833 651.5,138.5C 647.833,138.5 644.167,138.5 640.5,138.5C 640.5,141.5 640.5,144.5 640.5,147.5C 644.833,147.5 649.167,147.5 653.5,147.5C 653.5,149.5 653.5,151.5 653.5,153.5C 646.5,153.5 639.5,153.5 632.5,153.5C 632.168,142.147 632.501,130.814 633.5,119.5C 634.183,119.137 634.85,118.804 635.5,118.5C 641.682,117.93 647.682,117.93 653.5,118.5 Z"/></g>
<g><path style="opacity:1" fill="#f8f7f2" d="M 683.5,124.5 C 680.5,124.5 677.5,124.5 674.5,124.5C 674.5,134.167 674.5,143.833 674.5,153.5C 672.167,153.5 669.833,153.5 667.5,153.5C 667.5,143.833 667.5,134.167 667.5,124.5C 664.5,124.5 661.5,124.5 658.5,124.5C 658.5,123.167 658.5,121.833 658.5,120.5C 658.5,119.5 658.5,118.5 658.5,117.5C 666.807,118.449 675.14,118.449 683.5,117.5C 683.715,120.144 683.715,122.477 683.5,124.5 Z"/></g>
<g><path style="opacity:1" fill="#eee8e4" d="M 358.5,135.5 C 358.539,134.244 358.039,133.244 357,132.5C 356.503,135.146 356.336,137.813 356.5,140.5C 356.833,144.999 356.833,149.332 356.5,153.5C 353.5,153.5 350.5,153.5 347.5,153.5C 347.5,141.833 347.5,130.167 347.5,118.5C 350.85,118.335 354.183,118.502 357.5,119C 360.972,123.942 363.972,129.108 366.5,134.5C 366.795,136.423 367.628,138.09 369,139.5C 369.498,136.518 369.665,133.518 369.5,130.5C 369.334,126.486 369.501,122.486 370,118.5C 372.685,118.173 375.518,118.173 378.5,118.5C 378.5,130.167 378.5,141.833 378.5,153.5C 375.15,153.665 371.817,153.498 368.5,153C 364.511,147.519 361.178,141.685 358.5,135.5 Z"/></g>
<g><path style="opacity:1" fill="#f5f1ee" d="M 589.5,118.5 C 589.5,127.833 589.5,137.167 589.5,146.5C 593.833,146.5 598.167,146.5 602.5,146.5C 602.5,148.833 602.5,151.167 602.5,153.5C 595.5,153.5 588.5,153.5 581.5,153.5C 581.5,141.833 581.5,130.167 581.5,118.5C 584.167,118.5 586.833,118.5 589.5,118.5 Z"/></g>
<g><path style="opacity:1" fill="#fefdfb" d="M 614.5,118.5 C 614.807,127.887 614.473,137.22 613.5,146.5C 617.445,147.491 621.445,147.824 625.5,147.5C 625.5,149.167 625.5,150.833 625.5,152.5C 619.5,152.5 613.5,152.5 607.5,152.5C 607.5,141.167 607.5,129.833 607.5,118.5C 609.626,118.15 611.959,118.15 614.5,118.5 Z"/></g>
<g><path style="opacity:1" fill="#f5f0ec" d="M 505.5,129.5 C 505.667,134.336 506.667,139.003 508.5,143.5C 509.386,142.675 509.719,141.675 509.5,140.5C 510.802,133.125 512.802,125.958 515.5,119C 517.579,118.192 519.579,118.359 521.5,119.5C 523.117,123.014 524.117,126.681 524.5,130.5C 524.953,134.693 526.119,138.693 528,142.5C 529.128,140.655 529.628,138.655 529.5,136.5C 530.826,130.526 532.159,124.526 533.5,118.5C 536.5,118.5 539.5,118.5 542.5,118.5C 539.656,130.209 536.656,141.876 533.5,153.5C 530.102,153.82 526.768,153.487 523.5,152.5C 522.518,149.904 521.851,147.238 521.5,144.5C 522.022,140.244 520.856,136.577 518,133.5C 517.495,135.518 516.995,137.518 516.5,139.5C 515.498,143.84 514.331,148.174 513,152.5C 509.606,153.456 506.106,153.789 502.5,153.5C 500.128,142.013 497.128,130.68 493.5,119.5C 496.768,118.513 500.102,118.18 503.5,118.5C 504.326,122.136 504.992,125.803 505.5,129.5 Z"/></g>
<g><path style="opacity:1" fill="#b4e7c4" d="M 153.5,121.5 C 153.5,127.167 153.5,132.833 153.5,138.5C 145.5,138.5 137.5,138.5 129.5,138.5C 128.833,138.167 128.167,137.833 127.5,137.5C 127.5,137.167 127.5,136.833 127.5,136.5C 127.5,132.5 127.5,128.5 127.5,124.5C 128.736,122.172 130.736,121.006 133.5,121C 140.372,120.476 147.039,120.642 153.5,121.5 Z M 132.5,128.5 C 133.5,128.5 134.5,128.5 135.5,128.5C 134.5,133.833 133.5,133.833 132.5,128.5 Z"/></g>
<g><path style="opacity:1" fill="#f5f0ec" d="M 321.5,118.5 C 325.182,118.335 328.848,118.501 332.5,119C 336.58,130.165 340.58,141.332 344.5,152.5C 341.232,153.487 337.898,153.82 334.5,153.5C 335.022,147.859 332.522,145.526 327,146.5C 325.167,146.833 323.333,147.167 321.5,147.5C 320.833,149.167 320.167,150.833 319.5,152.5C 316.572,153.484 313.572,153.817 310.5,153.5C 314.365,141.905 318.031,130.239 321.5,118.5 Z M 328.5,130.5 C 328.779,133.118 329.446,135.618 330.5,138C 328.75,139.319 326.75,139.819 324.5,139.5C 324.575,136.794 324.908,134.127 325.5,131.5C 326.222,131.082 326.722,130.416 327,129.5C 327.383,130.056 327.883,130.389 328.5,130.5 Z"/></g>
<g><path style="opacity:1" fill="#f4eeea" d="M 555.5,118.5 C 559.226,118.177 562.893,118.511 566.5,119.5C 570.35,130.573 574.35,141.573 578.5,152.5C 575.167,153.833 571.833,153.833 568.5,152.5C 567.833,150.833 567.167,149.167 566.5,147.5C 562.878,146.341 559.211,146.175 555.5,147C 554.331,149.007 553.665,151.173 553.5,153.5C 550.5,153.5 547.5,153.5 544.5,153.5C 547.879,141.742 551.546,130.075 555.5,118.5 Z M 562.5,131.5 C 563.363,133.895 563.363,136.229 562.5,138.5C 560.657,139.939 558.99,139.772 557.5,138C 558.38,136.644 558.714,135.144 558.5,133.5C 559.966,132.653 560.8,131.32 561,129.5C 561.278,130.416 561.778,131.082 562.5,131.5 Z"/></g>
<g><path style="opacity:1" fill="#f1ebe6" d="M 245.5,144.5 C 247.344,146.279 248.01,148.612 247.5,151.5C 232.508,157.004 223.174,152.004 219.5,136.5C 222.014,120.836 231.014,115.003 246.5,119C 248.321,121.456 248.988,124.289 248.5,127.5C 245.09,127.218 241.757,126.551 238.5,125.5C 230.647,128.175 228.147,133.508 231,141.5C 235.056,145.646 239.89,146.646 245.5,144.5 Z"/></g>
<g><path style="opacity:0.359" fill="#9b7e74" d="M 251.5,118.5 C 251.5,120.5 251.5,122.5 251.5,124.5C 254.167,124.5 256.833,124.5 259.5,124.5C 259.5,124.833 259.5,125.167 259.5,125.5C 256.167,125.5 252.833,125.5 249.5,125.5C 249.171,122.772 249.837,120.438 251.5,118.5 Z"/></g>
<g><path style="opacity:0.614" fill="#d7c0b6" d="M 437.5,118.5 C 437.5,129.833 437.5,141.167 437.5,152.5C 444.5,152.5 451.5,152.5 458.5,152.5C 451.352,153.492 444.019,153.825 436.5,153.5C 436.172,141.655 436.505,129.988 437.5,118.5 Z"/></g>
<g><path style="opacity:0.354" fill="#a58c82" d="M 458.5,124.5 C 454.366,125.485 450.032,125.818 445.5,125.5C 445.298,127.95 445.631,130.283 446.5,132.5C 444.631,130.365 443.964,127.698 444.5,124.5C 449.167,124.5 453.833,124.5 458.5,124.5 Z"/></g>
<g><path style="opacity:0.378" fill="#957b6f" d="M 653.5,118.5 C 654.468,120.607 654.802,122.941 654.5,125.5C 650.318,125.67 646.318,125.67 642.5,125.5C 641.526,127.743 641.192,130.076 641.5,132.5C 640.527,130.052 640.194,127.385 640.5,124.5C 644.833,124.5 649.167,124.5 653.5,124.5C 653.5,122.5 653.5,120.5 653.5,118.5 Z"/></g>
<g><path style="opacity:0.871" fill="#b29d91" d="M 186.5,123.5 C 187.993,124.312 188.66,125.645 188.5,127.5C 188.48,128.726 188.147,129.726 187.5,130.5C 187.007,128.194 186.674,125.861 186.5,123.5 Z"/></g>
<g><path style="opacity:0.02" fill="#88745b" d="M 328.5,130.5 C 327.883,130.389 327.383,130.056 327,129.5C 326.722,130.416 326.222,131.082 325.5,131.5C 326.221,124.435 327.221,124.102 328.5,130.5 Z"/></g>
<g><path style="opacity:0.491" fill="#b49e90" d="M 683.5,124.5 C 681.393,125.468 679.059,125.802 676.5,125.5C 675.268,134.383 675.268,143.217 676.5,152C 675.956,152.717 675.289,153.217 674.5,153.5C 674.5,143.833 674.5,134.167 674.5,124.5C 677.5,124.5 680.5,124.5 683.5,124.5 Z"/></g>
<g><path style="opacity:0.071" fill="#866a5e" d="M 177.5,125.5 C 175.5,125.5 173.5,125.5 171.5,125.5C 171.185,128.211 171.852,130.544 173.5,132.5C 172.5,132.5 171.5,132.5 170.5,132.5C 170.5,129.833 170.5,127.167 170.5,124.5C 173.059,124.198 175.393,124.532 177.5,125.5 Z"/></g>
<g><path style="opacity:0.035" fill="#7a5f54" d="M 216.5,124.5 C 214.393,125.468 212.059,125.802 209.5,125.5C 209.825,133.019 209.492,140.352 208.5,147.5C 208.5,139.833 208.5,132.167 208.5,124.5C 211.167,124.5 213.833,124.5 216.5,124.5 Z"/></g>
<g><path style="opacity:0.008" fill="#889176" d="M 132.5,128.5 C 133.919,127.549 135.585,127.216 137.5,127.5C 137.859,131.987 136.026,133.654 132,132.5C 131.235,130.934 131.402,129.601 132.5,128.5 Z M 132.5,128.5 C 133.5,133.833 134.5,133.833 135.5,128.5C 134.5,128.5 133.5,128.5 132.5,128.5 Z"/></g>
<g><path style="opacity:0.589" fill="#d1c0b6" d="M 259.5,124.5 C 260.494,133.652 260.827,142.985 260.5,152.5C 262.833,152.5 265.167,152.5 267.5,152.5C 267.5,152.833 267.5,153.167 267.5,153.5C 264.833,153.5 262.167,153.5 259.5,153.5C 259.5,144.167 259.5,134.833 259.5,125.5C 259.5,125.167 259.5,124.833 259.5,124.5 Z"/></g>
<g><path style="opacity:0.227" fill="#8f7f77" d="M 562.5,131.5 C 561.778,131.082 561.278,130.416 561,129.5C 560.8,131.32 559.966,132.653 558.5,133.5C 559.656,123.548 560.989,122.881 562.5,131.5 Z"/></g>
<g><path style="opacity:0.28" fill="#675d44" d="M 127.5,124.5 C 127.5,128.5 127.5,132.5 127.5,136.5C 126.335,135.504 125.668,134.171 125.5,132.5C 125.964,129.651 126.631,126.984 127.5,124.5 Z"/></g>
<g><path style="opacity:0.102" fill="#84695c" d="M 635.5,118.5 C 634.85,118.804 634.183,119.137 633.5,119.5C 632.501,130.814 632.168,142.147 632.5,153.5C 631.176,141.993 631.176,130.327 632.5,118.5C 633.687,117.347 634.687,117.347 635.5,118.5 Z"/></g>
<g><path style="opacity:0.027" fill="#69504b" d="M 358.5,135.5 C 357.833,137.167 357.167,138.833 356.5,140.5C 356.336,137.813 356.503,135.146 357,132.5C 358.039,133.244 358.539,134.244 358.5,135.5 Z"/></g>
<g><path style="opacity:0.867" fill="#b5988f" d="M 505.5,129.5 C 506.546,133.261 507.879,136.927 509.5,140.5C 509.719,141.675 509.386,142.675 508.5,143.5C 506.667,139.003 505.667,134.336 505.5,129.5 Z"/></g>
<g><path style="opacity:0.051" fill="#7b5a46" d="M 369.5,130.5 C 369.665,133.518 369.498,136.518 369,139.5C 367.628,138.09 366.795,136.423 366.5,134.5C 367.117,134.611 367.617,134.944 368,135.5C 368.198,133.618 368.698,131.952 369.5,130.5 Z"/></g>
<g><path style="opacity:1" fill="#f7f3ef" d="M 465.5,118.5 C 471.176,118.334 476.843,118.501 482.5,119C 492.312,125.205 492.979,132.371 484.5,140.5C 487.167,144.5 489.833,148.5 492.5,152.5C 488.833,153.833 485.167,153.833 481.5,152.5C 479.489,149.139 477.489,145.806 475.5,142.5C 474.791,141.596 473.791,141.263 472.5,141.5C 472.5,145.167 472.5,148.833 472.5,152.5C 470.167,152.5 467.833,152.5 465.5,152.5C 465.5,141.167 465.5,129.833 465.5,118.5 Z M 478.5,125.5 C 483.012,130.82 481.679,133.82 474.5,134.5C 473.738,131.623 473.404,128.79 473.5,126C 475.134,125.506 476.801,125.34 478.5,125.5 Z"/></g>
<g><path style="opacity:0.365" fill="#99897e" d="M 478.5,125.5 C 476.801,125.34 475.134,125.506 473.5,126C 473.404,128.79 473.738,131.623 474.5,134.5C 472.598,131.663 471.931,128.329 472.5,124.5C 474.735,124.205 476.735,124.539 478.5,125.5 Z"/></g>
<g><path style="opacity:0.354" fill="#a5887c" d="M 658.5,120.5 C 658.5,121.833 658.5,123.167 658.5,124.5C 661.5,124.5 664.5,124.5 667.5,124.5C 667.5,134.167 667.5,143.833 667.5,153.5C 666.724,144.318 666.058,134.985 665.5,125.5C 662.833,125.5 660.167,125.5 657.5,125.5C 657.216,123.585 657.549,121.919 658.5,120.5 Z"/></g>
<g><path style="opacity:1" fill="#b8a69b" d="M 521.5,144.5 C 520.224,142.438 519.39,140.104 519,137.5C 518.292,138.381 517.458,139.047 516.5,139.5C 516.995,137.518 517.495,135.518 518,133.5C 520.856,136.577 522.022,140.244 521.5,144.5 Z"/></g>
<g><path style="opacity:0.375" fill="#85876c" d="M 153.5,121.5 C 154.49,127.31 154.823,133.31 154.5,139.5C 146.833,139.5 139.167,139.5 131.5,139.5C 131.167,139.5 130.833,139.5 130.5,139.5C 129.833,139.5 129.5,139.167 129.5,138.5C 137.5,138.5 145.5,138.5 153.5,138.5C 153.5,132.833 153.5,127.167 153.5,121.5 Z"/></g>
<g><path style="opacity:0.464" fill="#baa198" d="M 456.5,132.5 C 457.468,134.607 457.802,136.941 457.5,139.5C 453.5,139.5 449.5,139.5 445.5,139.5C 445.5,141.833 445.5,144.167 445.5,146.5C 450.032,146.182 454.366,146.515 458.5,147.5C 453.833,147.5 449.167,147.5 444.5,147.5C 444.5,144.5 444.5,141.5 444.5,138.5C 448.5,138.5 452.5,138.5 456.5,138.5C 456.5,136.5 456.5,134.5 456.5,132.5 Z"/></g>
<g><path style="opacity:0.483" fill="#b9a193" d="M 653.5,153.5 C 653.5,151.5 653.5,149.5 653.5,147.5C 649.167,147.5 644.833,147.5 640.5,147.5C 640.5,144.5 640.5,141.5 640.5,138.5C 644.167,138.5 647.833,138.5 651.5,138.5C 651.5,136.833 651.5,135.167 651.5,133.5C 648.941,133.802 646.607,133.468 644.5,132.5C 646.702,132.276 649.035,131.943 651.5,131.5C 652.287,132.242 652.953,133.075 653.5,134C 652.594,135.699 652.261,137.533 652.5,139.5C 648.833,139.5 645.167,139.5 641.5,139.5C 641.5,141.833 641.5,144.167 641.5,146.5C 645.833,146.5 650.167,146.5 654.5,146.5C 654.802,149.059 654.468,151.393 653.5,153.5 Z"/></g>
<g><path style="opacity:0.094" fill="#8e7569" d="M 192.5,118.5 C 192.5,120.5 192.5,122.5 192.5,124.5C 195.167,124.5 197.833,124.5 200.5,124.5C 200.5,134.167 200.5,143.833 200.5,153.5C 199.506,144.348 199.173,135.015 199.5,125.5C 196.278,125.892 193.278,125.392 190.5,124C 191.109,122.052 191.776,120.218 192.5,118.5 Z"/></g>
<g><path style="opacity:0.598" fill="#bca397" d="M 431.5,118.5 C 432.468,120.607 432.802,122.941 432.5,125.5C 428.167,125.5 423.833,125.5 419.5,125.5C 419.5,128.167 419.5,130.833 419.5,133.5C 423.167,133.5 426.833,133.5 430.5,133.5C 430.5,135.833 430.5,138.167 430.5,140.5C 426.894,140.211 423.394,140.544 420,141.5C 419.824,145.688 419.324,149.688 418.5,153.5C 418.5,148.833 418.5,144.167 418.5,139.5C 422.167,139.5 425.833,139.5 429.5,139.5C 429.5,137.833 429.5,136.167 429.5,134.5C 425.833,134.5 422.167,134.5 418.5,134.5C 418.5,131.167 418.5,127.833 418.5,124.5C 422.833,124.5 427.167,124.5 431.5,124.5C 431.5,122.5 431.5,120.5 431.5,118.5 Z"/></g>
<g><path style="opacity:0.608" fill="#a78f84" d="M 524.5,130.5 C 526.108,133.21 527.275,136.21 528,139.5C 528.232,138.263 528.732,137.263 529.5,136.5C 529.628,138.655 529.128,140.655 528,142.5C 526.119,138.693 524.953,134.693 524.5,130.5 Z"/></g>
<g><path style="opacity:0.361" fill="#ac8f81" d="M 276.5,124.5 C 274.052,125.473 271.385,125.806 268.5,125.5C 268.827,135.015 268.494,144.348 267.5,153.5C 267.5,153.167 267.5,152.833 267.5,152.5C 267.5,143.167 267.5,133.833 267.5,124.5C 270.5,124.5 273.5,124.5 276.5,124.5 Z"/></g>
<g><path style="opacity:0.082" fill="#595336" d="M 127.5,137.5 C 127.668,140.051 128.668,140.718 130.5,139.5C 130.833,139.5 131.167,139.5 131.5,139.5C 137.466,140.739 143.466,141.739 149.5,142.5C 142.833,142.5 136.167,142.5 129.5,142.5C 127.703,141.607 126.37,140.274 125.5,138.5C 126.167,138.167 126.833,137.833 127.5,137.5 Z"/></g>
<g><path style="opacity:0.592" fill="#c2aca1" d="M 465.5,118.5 C 465.5,129.833 465.5,141.167 465.5,152.5C 467.833,152.5 470.167,152.5 472.5,152.5C 472.5,148.833 472.5,145.167 472.5,141.5C 473.791,141.263 474.791,141.596 475.5,142.5C 474.778,142.918 474.278,143.584 474,144.5C 473.502,147.482 473.335,150.482 473.5,153.5C 470.5,153.5 467.5,153.5 464.5,153.5C 464.579,152.07 464.246,150.736 463.5,149.5C 464.145,139.038 464.811,128.705 465.5,118.5 Z"/></g>
<g><path style="opacity:0.226" fill="#aa8e81" d="M 589.5,118.5 C 590.493,127.318 590.827,136.318 590.5,145.5C 594.833,145.5 599.167,145.5 603.5,145.5C 603.806,148.385 603.473,151.052 602.5,153.5C 602.5,151.167 602.5,148.833 602.5,146.5C 598.167,146.5 593.833,146.5 589.5,146.5C 589.5,137.167 589.5,127.833 589.5,118.5 Z"/></g>
<g><path style="opacity:0.235" fill="#917569" d="M 615.5,141.5 C 616.434,142.568 616.768,143.901 616.5,145.5C 620.702,145.183 624.702,145.517 628.5,146.5C 624.167,146.5 619.833,146.5 615.5,146.5C 615.5,144.833 615.5,143.167 615.5,141.5 Z"/></g>
<g><path style="opacity:0.039" fill="#72584e" d="M 245.5,144.5 C 246.209,143.596 247.209,143.263 248.5,143.5C 248.806,146.385 248.473,149.052 247.5,151.5C 248.01,148.612 247.344,146.279 245.5,144.5 Z"/></g>
<g><path style="opacity:1" fill="#d6c5ba" d="M 607.5,118.5 C 607.5,129.833 607.5,141.167 607.5,152.5C 613.5,152.5 619.5,152.5 625.5,152.5C 625.5,150.833 625.5,149.167 625.5,147.5C 621.445,147.824 617.445,147.491 613.5,146.5C 614.473,137.22 614.807,127.887 614.5,118.5C 615.492,125.982 615.825,133.648 615.5,141.5C 615.5,143.167 615.5,144.833 615.5,146.5C 619.833,146.5 624.167,146.5 628.5,146.5C 628.5,148.833 628.5,151.167 628.5,153.5C 621.167,153.5 613.833,153.5 606.5,153.5C 606.172,141.655 606.505,129.988 607.5,118.5 Z"/></g>
<g><path style="opacity:0.901" fill="#abb89b" d="M 91.5,117.5 C 91.3334,130.837 91.5001,144.171 92,157.5C 92.8333,159 94,160.167 95.5,161C 113.187,161.763 130.854,161.597 148.5,160.5C 148.5,154.833 148.5,149.167 148.5,143.5C 142.537,144.53 136.537,144.697 130.5,144C 129.944,143.617 129.611,143.117 129.5,142.5C 136.167,142.5 142.833,142.5 149.5,142.5C 150.289,142.783 150.956,143.283 151.5,144C 150.691,149.417 150.191,154.917 150,160.5C 149.5,161 149,161.5 148.5,162C 143.164,162.47 137.83,162.97 132.5,163.5C 119.512,162.765 106.512,162.265 93.5,162C 92.3333,161.5 91.5,160.667 91,159.5C 90.1727,145.327 90.3393,131.327 91.5,117.5 Z"/></g>
</svg>